<?xml version="1.0" encoding="UTF-8"?>
<svg id="Layer_1" data-name="Layer 1" xmlns="http://www.w3.org/2000/svg" viewBox="0 0 1922 6812">
  <defs>
    <style>
      .cls-1, .cls-2, .cls-3, .cls-4, .cls-5 {
        stroke-width: 0px;
      }

      .cls-6 {
        fill: none;
        stroke: #707070;
      }

      .cls-2 {
        fill: #f2f0e3;
      }

      .cls-3 {
        fill: #f8e49b;
      }

      .cls-4 {
        fill: #6efcc0;
      }

      .cls-5 {
        fill: #ae7aff;
      }
    </style>
  </defs>
  <g id="Rectangle_200" data-name="Rectangle 200">
    <rect class="cls-4" y="4930" width="1922" height="1882"/>
    <rect class="cls-6" x=".5" y="4930.5" width="1921" height="1881"/>
  </g>
  <rect id="Rectangle_87" data-name="Rectangle 87" class="cls-2" x="1" width="1920" height="1264"/>
  <g id="Subtraction_1" data-name="Subtraction 1">
    <path class="cls-5" d="m1919,2164H3V929h164v156h840s0,166,0,166v2h172v-168h740v1079Z"/>
    <path class="cls-1" d="m1917,2162v-1075h-736v168h-176v-168s-840,0-840,0v-156H5v1231h1912m4,4h0s-1920,0-1920,0V927h168v156h840s0,168,0,168h168v-168h744v1083Z"/>
  </g>
  <rect id="Rectangle_134" data-name="Rectangle 134" class="cls-5" x="1" y="2082" width="1920" height="1383"/>
  <g id="Union_23" data-name="Union 23">
    <path class="cls-3" d="m1919,5542h-164v-328H167v164H3v-1189h0v-911h160.01v164h172v-332h327.99v168h172v-168h919.99v-168h164v1034h0v411h1v827h-1v328Z"/>
    <path class="cls-1" d="m1917,5540v-328h1v-823h-1v-411h0v-1034h-160v168h-919.99v168h-176v-168h-323.99v332h-176v-164H4.99s0,907,0,907h0v1189h160v-164h1592v328h160m4,4h-168v-328H169v164H1v-1189h0v-1083,168s164.01,0,164.01,0v164h168v-332h331.99v168h168v-168h919.99v-168h168v1034h0v411h1v831h-1v328Z"/>
  </g>
</svg>